<?xml version="1.0" encoding="utf-8"?>
<!-- Generator: Adobe Illustrator 21.0.0, SVG Export Plug-In . SVG Version: 6.00 Build 0)  -->
<svg version="1.1" id="图层_1" xmlns="http://www.w3.org/2000/svg" xmlns:xlink="http://www.w3.org/1999/xlink" x="0px" y="0px"
	 viewBox="0 0 500 400" style="enable-background:new 0 0 500 400;" xml:space="preserve">
<style type="text/css">
	.st0{fill:#E3E4E4;}
	.st1{fill:#A7A9AC;stroke:#231F20;stroke-width:6;stroke-linejoin:round;stroke-miterlimit:10;}
	.st2{fill:#D1D3D4;stroke:#231F20;stroke-width:6;stroke-linejoin:round;stroke-miterlimit:10;}
	.st3{fill:#FFFFFF;}
	.st4{fill:none;stroke:#231F20;stroke-width:6;stroke-linejoin:round;stroke-miterlimit:10;}
	.st5{fill:#F1F2F2;}
	.st6{fill:#F2F2F2;}
	.st7{fill:#6D6E71;}
	.st8{fill:#F1F2F2;stroke:#231F20;stroke-width:6;stroke-linejoin:round;stroke-miterlimit:10;}
	.st9{fill:#6B597B;stroke:#231F20;stroke-width:6;stroke-linejoin:round;stroke-miterlimit:10;}
	.st10{fill:#5A327B;}
	.st11{fill:#FFFFFF;stroke:#231F20;stroke-width:6;stroke-linejoin:round;stroke-miterlimit:10;}
	.st12{fill:#FEC430;stroke:#231F20;stroke-width:6;stroke-linejoin:round;stroke-miterlimit:10;}
	.st13{fill:#FFCB31;stroke:#231F20;stroke-width:5.8599;stroke-linejoin:round;stroke-miterlimit:10;}
</style>
<g>
	<path class="st0" d="M247.9,18.3C147.6,18.3,66.3,99.7,66.3,200c0,100.3,81.3,181.7,181.7,181.7c100.3,0,181.7-81.3,181.7-181.7
		C429.6,99.7,348.3,18.3,247.9,18.3z M247.9,324.6c-68.8,0-124.6-55.8-124.6-124.6c0-68.8,55.8-124.5,124.6-124.5
		c68.8,0,124.5,55.8,124.5,124.5C372.5,268.8,316.7,324.6,247.9,324.6z"/>
</g>
<g>
	<rect x="16.5" y="175.1" class="st1" width="176" height="46"/>
	<rect x="16.5" y="221.1" class="st2" width="176" height="47"/>
	<rect x="16.5" y="268.1" class="st1" width="176" height="44"/>
	<circle class="st3" cx="50.3" cy="242.6" r="10.3"/>
	<circle class="st3" cx="83" cy="242.6" r="10.3"/>
	<line class="st4" x1="167.5" y1="282.1" x2="39.5" y2="282.1"/>
	<line class="st4" x1="167.5" y1="294.1" x2="39.5" y2="294.1"/>
	<line class="st4" x1="167.5" y1="235.1" x2="167.5" y2="247.1"/>
	<line class="st4" x1="156.5" y1="235.1" x2="156.5" y2="247.1"/>
	<line class="st4" x1="145.5" y1="235.1" x2="145.5" y2="247.1"/>
	<line class="st4" x1="132.5" y1="235.1" x2="132.5" y2="247.1"/>
	<line class="st4" x1="120.5" y1="235.1" x2="120.5" y2="247.1"/>
	<line class="st4" x1="88.5" y1="241.1" x2="79.5" y2="241.1"/>
	<line class="st4" x1="54.5" y1="241.1" x2="47.5" y2="241.1"/>
	<rect x="41.5" y="189.1" class="st5" width="6" height="17"/>
	<rect x="54.5" y="189.1" class="st5" width="4" height="17"/>
	<rect x="64.5" y="189.1" class="st5" width="8" height="17"/>
	<rect x="77.5" y="189.1" class="st5" width="8" height="17"/>
	<rect x="91.5" y="189.1" class="st5" width="5" height="17"/>
	<line class="st4" x1="174.5" y1="190.1" x2="102.5" y2="190.1"/>
	<line class="st4" x1="174.5" y1="203.1" x2="102.5" y2="203.1"/>
</g>
<g>
	<path class="st6" d="M41.7,89.7c7.2,0,13.9,2.2,19.5,6c3.8-4.3,8.9-7.3,14.8-8.3c-0.2-1.6-0.4-3.3-0.4-5c0-19,15.4-34.4,34.3-34.4
		c19,0,34.4,15.4,34.4,34.3c0,2.8-0.3,5.5-1,8.1c2.5-0.6,5.2-0.8,7.9-0.8c19,0,34.3,14.4,34.3,34.4H7.3
		C7.3,104.1,22.7,89.7,41.7,89.7z"/>
	<path class="st6" d="M185,123.9"/>
</g>
<g>
	<path class="st7" d="M391.5,101c0-7.2-6.1-11.9-13.2-11.9H125.1c-7.2,0-13.6,4.7-13.6,11.9v184.1h280V101z"/>
	<path class="st8" d="M89.5,285.1v14.2c0,7.2,8.2,12.8,16.5,12.8h291.4c8.3,0,16.1-5.7,16.1-12.8v-14.2H89.5z"/>
	<rect x="129.5" y="104.1" class="st9" width="244" height="164"/>
	<line class="st4" x1="236.5" y1="300.1" x2="268.5" y2="300.1"/>
	<rect x="331.5" y="124.1" class="st10" width="23" height="40"/>
	<rect x="151.5" y="124.1" class="st10" width="168" height="40"/>
	<rect x="151.5" y="175.1" class="st10" width="46" height="40"/>
	<rect x="206.5" y="175.1" class="st10" width="144" height="40"/>
	<rect x="151.5" y="228.1" class="st10" width="199" height="19"/>
</g>
<g>
	<rect x="303.5" y="175.1" class="st1" width="176" height="46"/>
	<rect x="303.5" y="221.1" class="st2" width="176" height="47"/>
	<rect x="303.5" y="268.1" class="st1" width="176" height="44"/>
	<circle class="st3" cx="337.4" cy="242.6" r="10.3"/>
	<circle class="st3" cx="370.2" cy="242.6" r="10.3"/>
	<line class="st4" x1="455.5" y1="282.1" x2="326.5" y2="282.1"/>
	<line class="st4" x1="455.5" y1="294.1" x2="326.5" y2="294.1"/>
	<line class="st4" x1="455.5" y1="235.1" x2="455.5" y2="247.1"/>
	<line class="st4" x1="444.5" y1="235.1" x2="444.5" y2="247.1"/>
	<line class="st4" x1="430.5" y1="235.1" x2="430.5" y2="247.1"/>
	<line class="st4" x1="419.5" y1="235.1" x2="419.5" y2="247.1"/>
	<line class="st4" x1="407.5" y1="235.1" x2="407.5" y2="247.1"/>
	<line class="st4" x1="375.5" y1="241.1" x2="366.5" y2="241.1"/>
	<line class="st4" x1="341.5" y1="241.1" x2="335.5" y2="241.1"/>
	<rect x="329.5" y="189.1" class="st5" width="6" height="17"/>
	<rect x="341.5" y="189.1" class="st5" width="4" height="17"/>
	<rect x="351.5" y="189.1" class="st5" width="6" height="17"/>
	<rect x="363.5" y="189.1" class="st5" width="9" height="17"/>
	<rect x="378.5" y="189.1" class="st5" width="6" height="17"/>
	<line class="st4" x1="461.5" y1="190.1" x2="391.5" y2="190.1"/>
	<line class="st4" x1="461.5" y1="203.1" x2="391.5" y2="203.1"/>
</g>
<rect x="162.5" y="196.1" class="st11" width="33" height="72"/>
<rect x="208.5" y="158.1" class="st11" width="31" height="110"/>
<rect x="252.5" y="71.1" class="st12" width="30" height="197"/>
<line class="st4" x1="252.5" y1="89.1" x2="269.5" y2="89.1"/>
<line class="st4" x1="252.5" y1="118.1" x2="269.5" y2="118.1"/>
<line class="st4" x1="252.5" y1="149.1" x2="269.5" y2="149.1"/>
<line class="st4" x1="252.5" y1="178.1" x2="269.5" y2="178.1"/>
<line class="st4" x1="252.5" y1="209.1" x2="269.5" y2="209.1"/>
<line class="st4" x1="252.5" y1="238.1" x2="269.5" y2="238.1"/>
<g>
	<path class="st3" d="M456.5,115.4c-7.6,0-14.7,2.1-20.5,6.1c-4-4.5-9.4-7.8-15.6-8.8c0.3-1.7,0.4-3.6,0.4-5.4
		c0-20-16.2-36.2-36.2-36.2c-20,0-36.2,16.2-36.2,36.2c0,2.9,0.4,5.8,1,8.5c-2.7-0.6-5.5-0.5-8.3-0.5c-20,0-36.2,14.7-36.2,36.7
		h187.8C492.7,130.1,476.5,115.4,456.5,115.4z"/>
	<path class="st13" d="M305.5,151"/>
</g>
</svg>
